HIERARCHY
ROOT Hips
{
  OFFSET -33.9132 29.2015 117.021
  CHANNELS 6 Xposition Yposition Zposition Zrotation Xrotation Yrotation
  JOINT LeftUpLeg
  {
    OFFSET 8.64259 1.95398 -2.38835
    CHANNELS 3 Zrotation Xrotation Yrotation
    JOINT LeftLeg
    {
      OFFSET 43.7702 0 0
      CHANNELS 3 Zrotation Xrotation Yrotation
      JOINT LeftFoot
      {
        OFFSET 40.6238 0 0
        CHANNELS 3 Zrotation Xrotation Yrotation
        JOINT LeftToeBase
        {
          OFFSET 12.7242 0 0
          CHANNELS 3 Zrotation Xrotation Yrotation
          End Site
          {
            OFFSET 0 0 0
          }
        }
      }
    }
  }
  JOINT RightUpLeg
  {
    OFFSET -8.2249 1.95398 -2.59336
    CHANNELS 3 Zrotation Xrotation Yrotation
    JOINT RightLeg
    {
      OFFSET 43.5653 0 0
      CHANNELS 3 Zrotation Xrotation Yrotation
      JOINT RightFoot
      {
        OFFSET 40.6238 0 0
        CHANNELS 3 Zrotation Xrotation Yrotation
        JOINT RightToeBase
        {
          OFFSET 12.7242 0 0
          CHANNELS 3 Zrotation Xrotation Yrotation
          End Site
          {
            OFFSET 0 0 0
          }
        }
      }
    }
  }
  JOINT Spine
  {
    OFFSET 0.165834 0.87714 6.61349
    CHANNELS 3 Zrotation Xrotation Yrotation
    JOINT Spine1
    {
      OFFSET 7.38963 1.71661e-005 0
      CHANNELS 3 Zrotation Xrotation Yrotation
      JOINT Spine2
      {
        OFFSET 11.9445 1.14441e-005 0
        CHANNELS 3 Zrotation Xrotation Yrotation
        JOINT Spine3
        {
          OFFSET 14.7254 4.19617e-005 0
          CHANNELS 3 Zrotation Xrotation Yrotation
          JOINT Spine4
          {
            OFFSET 10.9679 0 0
            CHANNELS 3 Zrotation Xrotation Yrotation
            JOINT RightShoulder
            {
              OFFSET 2.46616 -1.6653 3.69651
              CHANNELS 3 Zrotation Xrotation Yrotation
              JOINT RightArm
              {
                OFFSET 13.0012 0 0
                CHANNELS 3 Zrotation Xrotation Yrotation
                JOINT RightForeArm
                {
                  OFFSET 28.7848 1.62311e-005 0
                  CHANNELS 3 Zrotation Xrotation Yrotation
                  JOINT RightHand
                  {
                    OFFSET 26.5688 1.62095e-005 0
                    CHANNELS 3 Zrotation Xrotation Yrotation
                    End Site
                    {
                      OFFSET 0 0 0
                    }
                  }
                }
              }
            }
            JOINT LeftShoulder
            {
              OFFSET 2.38034 -1.29275 -3.7523
              CHANNELS 3 Zrotation Xrotation Yrotation
              JOINT LeftArm
              {
                OFFSET 16.3182 6.07031e-005 0
                CHANNELS 3 Zrotation Xrotation Yrotation
                JOINT LeftForeArm
                {
                  OFFSET 27.0901 0 0
                  CHANNELS 3 Zrotation Xrotation Yrotation
                  JOINT LeftHand
                  {
                    OFFSET 24.5451 1.51738e-005 0
                    CHANNELS 3 Zrotation Xrotation Yrotation
                    End Site
                    {
                      OFFSET 0 0 0
                    }
                  }
                }
              }
            }
            JOINT Neck
            {
              OFFSET 5.0226 -0.0266342 0
              CHANNELS 3 Zrotation Xrotation Yrotation
              JOINT Head
              {
                OFFSET 6.69364 2.86102e-005 0
                CHANNELS 3 Zrotation Xrotation Yrotation
                End Site
                {
                  OFFSET 0 0 0
                }
              }
            }
          }
        }
      }
    }
  }
}
MOTION
Frames:	14
Frame Time:	0.0416667
-13.8111 102.551 17.1158 93.5395 21.4918 75.0243 -177.312 31.3141 78.9216 -35.7743 4.63907 -1.63133 82.8255 15.2739 -1.12904 15.1104 -10.2363 6.09842 170.791 -2.04877 82.277 -20.9207 -4.80147 -2.42791 65.6226 -3.91759 -2.08906 32.7808 -3.33291 7.62534 2.52203 8.25451 -88.0929 10.2756 5.89622 3.28148 -1.3854 6.03483 3.01824 -23.9601 4.63831 4.90247 -3.94743 4.63829 4.90245 90.8829 -19.8942 -109.275 50.3435 -0.838842 -20.9113 -4.35261 -25.1252 -5.01256 -24.6512 0.262303 -6.45148 -86.8868 -45.6056 82.6494 -10.2703 -19.1824 12.3946 -7.89335 19.0275 0.010846 27.8311 0.88742 -0.34254 -0.873496 12.8008 39.017 -7.66794 7.75381 -6.66474 
-1.53118 94.8871 4.9133 94.5145 21.9525 77.8719 -176.515 28.9731 80.403 -22.5783 5.59123 -2.90796 74.5504 9.98426 -1.82389 18.9811 -9.37763 8.53986 167.979 -15.1792 81.052 -21.5982 0.496849 -3.67627 82.5314 -15.2849 0.0803572 39.0798 -4.00149 -4.12259 2.00545 8.24005 -88.7531 10.3481 4.56553 2.08149 -1.31612 4.6527 1.87821 -23.8845 3.72901 3.35826 -3.87182 3.72901 3.35826 91.4233 -19.6617 -108.134 55.4137 -0.832095 -13.4439 -4.18319 -21.4775 -4.96557 -26.4751 -0.145944 -4.58499 -87.3218 -55.9808 83.715 -11.6543 -16.5635 10.8379 -9.54131 18.4593 0.0142785 22.0677 0.430186 -1.94964 3.0841 12.7799 30.532 -7.02533 7.58442 -2.27928 
15.0127 92.7021 -7.41627 95.3709 27.407 79.9316 -173.257 28.7223 80.0912 -38.851 10.0186 -4.4736 68.7923 5.05417 -0.519204 14.5223 -12.9322 9.61701 166.648 -15.9244 78.7221 -37.3491 1.68588 -2.66987 65.2008 -4.03127 -1.8466 37.2523 -4.46528 1.53959 1.28442 7.84111 -88.6774 11.1511 3.17057 2.32357 -0.517981 3.26975 2.18173 -23.0536 2.32604 3.1687 -3.04094 2.32603 3.16869 90.9368 -24.2641 -107.159 58.1285 4.79723 3.86976 -4.1475 -20.6818 -4.95471 -23.626 0.449924 -7.44805 -88.5207 -53.7452 81.6276 -9.84843 -16.373 3.40794 -9.68262 24.3139 0.017709 20.4057 0.69748 -0.752131 7.885 10.5334 14.8594 -9.22859 7.66651 -5.84876 
27.485 92.8795 -17.6579 97.9837 31.6475 80.7311 -172.712 20.1495 81.7538 -47.5733 14.8317 -4.30657 81.4268 14.813 2.17605 12.3085 -14.6967 10.2664 172.31 9.82177 90.938 -89.9451 -10.144 -3.52279 60.6491 -1.02413 -1.77325 23.5836 -0.104758 8.62904 0.265895 7.92418 -88.9285 11.0032 1.02611 2.04316 -0.669033 1.11501 1.99604 -23.191 0.364823 2.25699 -3.17831 0.364813 2.25698 93.3454 -22.6873 -102.402 52.7734 10.2981 15.5679 -4.07763 -19.125 -4.94172 -21.241 0.188826 -6.25786 -86.782 -45.5674 82.8137 -9.62007 -20.5988 -13.1277 -8.19109 23.9073 0.0195094 28.3814 0.696896 -0.868823 9.30985 7.26523 0.734077 -9.67365 7.52882 -9.71508 
38.0854 102.298 -28.0445 102.764 29.7924 86.3382 -173.568 -0.407567 87.5825 -29.4232 13.3068 -1.62396 63.1086 1.64751 0.139246 15.0772 -8.47076 3.18565 179.334 31.3056 98.5614 -102.961 3.14706 -3.9884 66.3543 -4.86331 -3.74035 21.4554 0.822263 8.10902 -0.199857 8.34042 -90.2693 10.1917 -0.521012 -0.490432 -1.47921 -0.542045 -0.467034 -24.0141 -0.349534 -0.624341 -4.00142 -0.34951 -0.624337 93.0176 -20.3813 -104.057 43.9484 13.144 20.0885 -4.23919 -22.7001 -4.97979 -21.2053 0.0488685 -5.51047 -85.7026 -37.1739 83.0748 -10.7434 -23.4909 -20.3122 -6.92755 21.9092 0.0198696 34.0513 0.47608 -1.6305 -1.28958 7.84302 -0.979682 -5.96265 8.24101 -11.9546 
48.2679 110.346 -38.3169 105.016 38.723 88.0431 -174.264 -6.2307 91.3586 -21.2892 20.8716 0.974118 46.3678 -8.13246 -4.62294 8.70431 -12.9548 4.46444 179.599 40.6409 100.963 -96.2884 5.03961 -3.74966 74.7013 -9.67086 -3.95431 18.1658 2.41077 7.21066 -0.941136 8.6396 -91.2962 9.55326 -2.46051 -2.37654 -2.11736 -2.5627 -2.26596 -24.6441 -1.63291 -3.00579 -4.63143 -1.6329 -3.00579 92.3084 -19.5691 -106.083 38.7573 15.1031 26.7945 -4.38529 -25.8083 -5.0232 -18.8129 0.184264 -6.41225 -86.9301 -32.1734 79.7693 -9.50717 -22.3582 -28.9207 -8.06672 18.43 0.0186928 31.3428 -0.161684 -4.15297 -4.87279 5.8285 -4.85775 -3.43247 6.39884 -11.3393 
58.8376 111.41 -47.6554 102.664 45.8406 88.884 -174.608 -5.43002 90.013 -12.2146 12.2925 0.252478 50.4061 -4.59598 -3.9925 10.2518 -15.3343 9.18975 178.901 43.8517 100.187 -81.5743 -1.01674 -2.84816 74.4155 -9.23131 -4.3109 20.8649 1.40633 7.01598 -1.24609 8.64448 -91.4935 9.54102 -3.15767 -2.71945 -2.12862 -3.27426 -2.57785 -24.6582 -2.19491 -3.5422 -4.64551 -2.19491 -3.54221 92.2785 -21.5312 -105.293 40.3104 15.4104 29.4035 -4.3174 -24.3824 -5.00204 -19.8159 0.272694 -6.90058 -86.7598 -30.7409 79.7193 -10.6636 -23.1637 -39.2565 -8.20487 17.8471 0.0163184 31.7531 0.168577 -3.27833 -0.267723 1.9739 -13.8845 -3.92494 3.94205 -9.82957 
70.8906 105.664 -57.4792 102.576 50.3637 89.6569 -175.197 -1.71623 90.9621 -21.4476 16.9112 1.53779 57.6462 -0.42836 3.56708 19.4881 -7.49317 5.28934 177.662 39.966 101.669 -59.6625 -7.71993 -0.235323 73.3376 -8.44254 -2.54808 25.0872 0.0499098 5.84802 -1.23364 8.59097 -91.537 9.64398 -3.15327 -2.80446 -2.02588 -3.27359 -2.66298 -24.5533 -2.16525 -3.6219 -4.54062 -2.16525 -3.62191 91.2685 -23.7304 -106.621 46.1149 14.8782 29.0532 -4.1152 -19.9667 -4.94877 -19.2999 0.234065 -6.68389 -87.2712 -32.5483 79.2288 -12.4327 -20.0098 -43.5969 -9.18687 20.6831 0.0124317 31.5516 0.560706 -1.82139 -2.61354 -0.596702 -19.5562 -1.32453 1.56276 -9.25496 
84.5417 95.9373 -68.1168 106.322 50.823 85.9595 -167.502 -17.2375 97.9437 -23.742 18.8404 0.209146 92.273 21.3475 -4.72649 22.8932 -7.88381 10.0998 178.443 32.4987 102.968 -38.7832 -9.30337 1.58996 72.5302 -8.4571 -2.60167 26.4301 -0.0206684 4.09945 -1.05107 8.74738 -91.0542 9.3547 -2.56948 -1.89929 -2.31493 -2.65056 -1.78435 -24.8512 -1.88006 -2.58357 -4.83855 -1.88006 -2.58357 92.7384 -27.4711 -102.089 51.1945 12.6172 22.4347 -3.95832 -16.3963 -4.91977 -19.753 0.0540162 -5.57363 -88.0527 -40.6738 79.7666 -23.1468 -21.0944 -42.8835 -5.99399 27.7405 0.00658152 35.3031 -0.368658 -3.5944 -1.34209 -2.57304 -22.0566 -1.99505 0.193311 -12.9005 
98.4017 92.4501 -83.4315 101.38 50.6048 87.5887 -167.904 -25.0502 96.8808 -25.2529 17.7905 1.03638 78.7076 14.9223 2.37299 33.524 -2.19197 11.7706 174.054 29.1534 101.277 -38.7725 -6.83023 4.81389 64.3353 -1.89422 -2.55144 23.0525 1.09968 5.12928 -1.17149 7.99981 -91.0754 10.8509 -2.82966 -1.87576 -0.818146 -2.90948 -1.74937 -23.358 -2.13525 -2.63936 -3.34538 -2.13521 -2.63936 92.8838 -27.9727 -101.629 49.9962 10.6767 14.6322 -3.73379 -11.1077 -4.89511 -16.4854 -0.0659162 -4.87686 -90.3936 -47.5107 77.5683 -24.042 -17.8735 -27.2877 -6.74418 37.0349 -0.00414832 29.4145 -0.0160984 -2.46313 0.883724 -2.84738 -16.4182 -4.35201 -0.390063 -10.8105 
109.65 91.782 -95.7592 100.58 48.9614 87.1769 -169.827 1.494 89.7655 -76.4507 22.8981 2.05444 62.8506 2.16432 3.2626 3.53367 -14.753 2.53341 170.249 25.0445 100.847 -54.945 -10.8359 5.16214 78.102 -13.0394 -5.11933 21.3084 1.93221 4.72999 -0.184627 7.95734 -91.2919 10.9344 -0.965814 -2.49204 -0.738596 -1.0745 -2.44716 -23.2539 -0.172564 -2.66697 -3.24123 -0.172555 -2.66697 93.8454 -23.4834 -101.01 50.8371 6.62789 2.01704 -3.87701 -14.5027 -4.90881 -23.2659 -0.377758 -2.85709 -90.3031 -51.3544 78.5921 -18.0955 -17.1365 -12.3609 -8.8754 27.5472 -0.0151442 27.329 1.3041 1.4278 9.54881 -2.42373 0.518516 -5.59504 -2.33297 -2.99811 
121.122 99.8057 -104.938 104.031 49.9319 78.5556 -175.719 30.5076 90.6734 -100.402 16.0844 3.93845 62.7957 2.0795 6.35073 2.17342 -13.7569 0.254909 172.451 6.76731 96.4301 -40.1528 -9.3631 2.99991 67.2602 -4.69051 -3.01634 29.6231 -2.43515 8.95268 0.756596 8.29637 -90.0572 10.2936 1.48119 -0.223698 -1.37653 1.46991 -0.288699 -23.9188 1.47999 0.231903 -3.90612 1.48001 0.231891 95.0481 -19.7373 -99.4695 54.4562 1.83455 -7.7749 -3.96642 -16.582 -4.92117 -26.4801 0.74597 -8.58256 -88.5168 -45.2714 79.9992 -8.57613 -23.7088 -2.12846 -6.09443 27.2828 -0.00934656 27.4096 1.38257 1.82956 2.26758 -2.9063 1.86833 -3.41956 -3.24258 4.30333 
132.802 109.462 -114.974 102.824 45.1281 73.2144 -176.151 41.6308 82.3822 -89.1467 14.9264 2.9573 68.8994 5.79974 5.82488 -0.275925 -15.5635 0.681133 174.945 -5.03136 89.8017 -24.7795 -16.1249 -2.186 50.8584 5.69271 2.61841 22.2591 1.78879 3.95752 1.45163 8.34605 -88.5474 10.1365 3.55477 2.58512 -1.53186 3.66508 2.4261 -24.07 2.61399 3.53361 -4.05738 2.61398 3.53361 93.6519 -19.2917 -102.988 56.7067 -0.109525 -9.9083 -4.14874 -20.715 -4.95702 -25.3333 1.04895 -10.0006 -87.9428 -39.4502 79.6763 2.04831 -16.7979 6.66867 -9.28005 22.0176 -0.00550808 28.2741 0.858432 -0.30022 -7.05386 -1.4951 3.67262 -1.12802 -1.74558 2.32446 
142.387 112.587 -125.806 96.8205 38.1939 75.096 -176.133 44.6713 78.4118 -70.9329 12.7826 1.20334 74.6977 9.12352 2.99285 1.79788 -16.4143 3.32531 169.429 -3.65576 85.0261 -16.7667 -12.3551 1.18253 47.7299 6.44237 7.08804 32.5282 -1.89538 0.930893 2.21575 8.39179 -88.1854 10.0098 5.24072 3.16953 -1.65382 5.37507 2.93546 -24.214 4.04667 4.59809 -4.2013 4.04669 4.59808 92.808 -20.2429 -104.607 54.4777 0.982204 -9.98452 -4.13011 -20.3029 -4.95263 -24.144 1.19417 -10.949 -87.1773 -46.8491 82.4336 8.11466 -17.8609 8.47503 -8.81433 24.0209 -0.00222571 35.4546 1.06648 0.151393 -3.62365 -0.440682 18.2747 -2.16524 -2.44404 -4.24037 
